<?xml version="1.0" standalone="no"?>
<!DOCTYPE svg PUBLIC "-//W3C//DTD SVG 1.1//EN" "http://www.w3.org/Graphics/SVG/1.1/DTD/svg11.dtd" >
<!--
2013-9-30: Created.
-->
<svg>
<metadata>
Created by iconfont
</metadata>
<defs>

<font id="iconfont" horiz-adv-x="1024" >
  <font-face
    font-family="iconfont"
    font-weight="500"
    font-stretch="normal"
    units-per-em="1024"
    ascent="896"
    descent="-128"
  />
    <missing-glyph />
    
    <glyph glyph-name="shaixuan1" unicode="&#58900;" d="M598.051353-63.799816c-0.277316 0.487094-0.415462 1.072425-0.792039 1.414209-7.649214 6.682189-10.82044 15.19405-10.785647 25.251104 0.104377 18.636452 0.035816 37.307697 0.035816 55.945173 0 127.767965 0.067538 255.536954-0.105401 383.304919-0.029676 12.127202 3.962242 21.564132 12.474103 30.040177 84.156702 83.951017 168.20698 168.074973 252.262374 252.128321 7.062859 7.094582 12.814864 14.94641 15.639189 24.835641 8.509814 29.352515-13.296841 59.873646-43.88858 61.216223-1.614777 0.068562-3.269463 0.068562-4.888334 0.068562L205.96135 770.404514c-22.843264 0-40.99467-12.160971-47.919383-32.586163-5.443989-16.090467-2.892887-31.245631 7.370875-44.853557 3.413749-4.477988 7.204076-8.644891 11.162224-12.608156 80.126922-80.230276 160.285566-160.459528 240.585427-240.551658 8.40646-8.372691 12.266371-17.774829 12.232602-29.659507-0.208754-87.050612-0.173962-174.137039-0.069585-261.155928 0-13.294794-4.790096-23.662933-16.709567-30.004361-19.015076-10.126638-42.748616 2.963495-44.50768 24.358781-0.172939 2.339278-0.172939 4.752234-0.172939 7.094582 0 82.191954-0.029676 164.351162 0.068562 246.51037 0 3.581572-1.029446 6.02932-3.546779 8.510838-79.091336 78.991052-158.254304 157.943218-237.108233 237.176794-21.494547 21.560038-33.414017 47.915289-33.518395 78.749552-0.172939 51.635007 34.485419 94.557586 81.676208 106.545618 9.921977 2.51631 20.465101 3.720741 30.695093 3.755534 203.900923 0.172939 407.727145 0.172939 611.593276 0.104377 42.681078 0 75.376735-18.428721 97.627505-54.910611 22.11467-36.307927 19.050891-86.842881-7.097652-120.362298-4.544503-5.825682-9.437953-11.43954-14.674211-16.639982-80.675414-80.779791-161.390737-161.491021-242.170528-242.101967-2.615571-2.615571-3.685949-5.131881-3.685949-8.887414 0.069585-139.340535-0.033769-278.651394 0.208754-417.957137 0.033769-13.262048-1.379417-25.319665-11.712763-34.762735C623.509165-63.799816 610.797655-63.799816 598.051353-63.799816L598.051353-63.799816zM598.051353-63.799816"  horiz-adv-x="1024" />

    
    <glyph glyph-name="jieguojisuandanchuang_LOGOTM" unicode="&#58959;" d="M903.34 348.42C879.53 320.6 829.2 294 759.28 274.68A943.81 943.81 0 0 1 715.89 384a943.48 943.48 0 0 1 43.4 109.37c69.91-19.33 120.24-45.92 144.05-73.74a50.55 50.55 0 0 0 36.07 15.1c1.45 0 2.82-0.31 4.24-0.43-27.61 41.38-89 75.94-172.74 99.07 21.8 84 22.59 154.27 0.68 198.88-0.59-1.24-1-2.53-1.68-3.74a50.74 50.74 0 0 0-31.23-23.78c12.12-34.55 9.95-91.34-8.23-161.43a943.83 943.83 0 0 1-116.61 17.11 948.55 948.55 0 0 1-73.22 91.93c12.53 12.35 25.07 23.74 37.56 34 36.94 30.38 71.22 48.9 98.56 54.06a50.73 50.73 0 0 0 5 39c0.69 1.19 1.59 2.16 2.36 3.28-38-2.63-83.16-24.43-132-64.59-13.27-10.92-26.6-23-39.88-36.09-13.28 13.08-26.61 25.17-39.88 36.09-48.06 39.54-92.54 61.25-130.19 64.43 0.56-0.85 1.24-1.55 1.76-2.44a52.11 52.11 0 0 0 5.09-39.84c27.1-5.52 60.88-23.95 97.19-53.82 12.49-10.27 25-21.66 37.56-34a948.55 948.55 0 0 1-73.22-91.93 943.83 943.83 0 0 1-116.61-17.11c-17.94 69.18-20.31 125.46-8.71 160.13a52.12 52.12 0 0 0-31.92 24.39c-0.53 0.92-0.81 1.9-1.28 2.83-21.11-44.68-20.08-114.33 1.46-197.29-83.76-23.13-145.13-57.7-172.74-99.07 1.42 0.12 2.79 0.43 4.24 0.43a50.55 50.55 0 0 0 36.07-15.1c23.81 27.83 74.14 54.41 144.05 73.74A943.48 943.48 0 0 1 308.51 384a943.81 943.81 0 0 1-43.39-109.36C195.2 294 144.87 320.6 121.06 348.42A50.54 50.54 0 0 0 85 333.32c-1.45 0-2.81 0.31-4.23 0.43 27.61-41.37 89-75.93 172.74-99.06-21.51-82.94-22.6-152.58-1.51-197.26 0.46 0.93 0.74 1.9 1.27 2.81a52.16 52.16 0 0 0 31.94 24.41c-11.58 34.67-9.21 90.94 8.73 160.1a944 944 0 0 1 116.6-17.11 948.29 948.29 0 0 1 73.22-91.95c-12.53-12.35-25.08-23.74-37.56-34-36.3-29.86-70.05-48.3-97.15-53.83a52.15 52.15 0 0 0-5.14-39.94c-0.49-0.84-1.14-1.51-1.67-2.32 37.64 3.21 82.05 24.83 130.07 64.34 13.27 10.92 26.6 23 39.88 36.09 13.28-13.08 26.61-25.17 39.88-36.09 50.28-41.37 96.61-63.16 135.33-64.69a47.52 47.52 0 0 0-3.39 4.71 48 48 0 0 0-4.59 37.24c-27.75 4.42-63.07 23.1-101.23 54.49-12.49 10.27-25 21.66-37.56 34a948.29 948.29 0 0 1 73.22 91.95 944 944 0 0 1 116.6 17.11c18.63-71.84 20.43-129.71 7.28-164a48.05 48.05 0 0 0 29.87-22.55 47.56 47.56 0 0 0 2.48-5.5c23.49 44.42 23.14 116.09 0.83 202 83.76 23.13 145.13 57.69 172.74 99.06-1.42-0.12-2.78-0.43-4.23-0.43a50.54 50.54 0 0 0-36.08 15.09zM718.74 503.3c-7.35-22.75-16.22-46.56-26.65-71.21q-11.06 21-23.34 42.34t-25.1 41.4c26.6-3.28 51.68-7.51 75.09-12.53zM591.23 247.21c-25.32-1.8-51.67-2.8-79-2.8s-53.71 1-79 2.8a1122.3 1122.3 0 0 0-41.91 67q-20.51 35.53-37.08 69.82 16.65 34.23 37.08 69.82c13.42 23.24 27.45 45.63 41.92 67 25.32 1.8 51.67 2.8 79 2.8s53.7-1 79-2.8c14.46-21.39 28.5-43.79 41.92-67q20.51-35.53 37.08-69.82-16.65-34.23-37.08-69.82c-13.44-23.21-27.47-45.61-41.93-67z m-79 375.38c16.34-18.1 32.51-37.75 48.33-58.72q-23.75 0.94-48.33 1t-48.33-1c15.79 20.96 31.96 40.61 48.3 58.71zM305.66 503.3c23.41 5 48.49 9.25 75.08 12.53q-12.84-20.25-25.1-41.4t-23.34-42.34c-10.43 24.65-19.3 48.46-26.64 71.21z m0-238.5c7.35 22.75 16.22 46.56 26.65 71.21q11.06-21 23.34-42.34t25.09-41.4c-26.6 3.29-51.68 7.52-75.08 12.53zM512.2 145.51c-16.34 18.11-32.51 37.76-48.33 58.73q23.75-0.94 48.33-1t48.33 1c-15.82-20.97-31.99-40.62-48.33-58.73z m131.46 106.76q12.84 20.25 25.09 41.4T692.09 336c10.43-24.65 19.29-48.46 26.65-71.21-23.41-5-48.49-9.23-75.08-12.52zM959.64 389.87a19 19 0 1 1 0.91-5.82 21.07 21.07 0 0 1-0.91 5.82zM105.79 380.8A21 21 0 1 1 85 362.91a21 21 0 0 1 20.79 17.89zM712.22 737.8a21.12 21.12 0 1 1-4.79 26.84 21.18 21.18 0 0 1 4.79-26.84zM309.49 33a22.18 22.18 0 1 1 4.42-3.48 21.62 21.62 0 0 1-4.42 3.48zM304.31 733.09a21.73 21.73 0 1 1-24.59 10 21.62 21.62 0 0 1 24.59-10zM725.815 14.07134m-17.415771-10.055a20.11 20.11 0 1 1 34.831542 20.11 20.11 20.11 0 1 1-34.831542-20.11Z"  horiz-adv-x="1024" />

    
    <glyph glyph-name="quzhong" unicode="&#58943;" d="M464.213333 731.613867H314.04032v-123.057494H464.213333V731.613867z m54.613334 0v-123.057494h341.68832V731.613867H518.826667z m0-573.44v-123.057494h136.533333V158.173867H518.826667z m-54.613334 0H314.04032v-123.057494H464.213333V158.173867z m-204.8 286.72v-123.057494h136.533334V444.893867H259.413333z m-54.613333 0H54.626987v-123.057494H204.8V444.893867z m505.173333-286.72v-123.057494h150.541654V158.173867H709.973333z m-259.413333 286.72v-123.057494h150.541653V444.893867H450.56z m456.922453-121.992534a25.10848 25.10848 0 0 0 0-35.38944 25.10848 25.10848 0 0 0-35.38944 0l-66.205013 66.205014-66.19136-66.218667a25.10848 25.10848 0 0 0-35.38944 0 25.10848 25.10848 0 0 0 0 35.403093l66.19136 66.19136-66.19136 66.205014a25.10848 25.10848 0 0 0 0 35.38944 25.10848 25.10848 0 0 0 35.38944 0l66.19136-66.205014 66.205013 66.205014a25.10848 25.10848 0 0 0 35.38944 0c9.721173-9.721173 9.721173-25.668267 0-35.38944l-66.205013-66.205014 66.205013-66.19136zM259.413333 786.773333h655.346347v-232.106666H259.413333V786.773333z m0-573.44h655.346347v-232.106666H259.413333V213.333333zM0 500.053333h655.346347v-232.106666H0V500.053333z"  horiz-adv-x="1024" />

    
    <glyph glyph-name="shanchu" unicode="&#58894;" d="M731.918 715.466H293.285c-40.383 0-73.106-32.72-73.106-73.103v-24.368h584.844v24.368c0.001 40.383-32.72 73.103-73.105 73.103m-127.696 48.735l10.756-76.91H410.225l10.756 76.91h183.24m5.855 48.735H415.128c-20.108 0-38.813-16.277-41.621-36.218L359.252 674.75c-2.784-19.917 11.4-36.194 31.508-36.194h243.685c20.108 0 34.293 16.276 31.484 36.217l-14.255 101.969c-2.786 19.917-21.49 36.194-41.598 36.194m134.026-243.675H281.1c-26.795 0-46.761-21.845-44.334-48.544l39.933-438.996c2.403-26.7 26.344-48.544 53.14-48.544h365.527c26.795 0 50.736 21.845 53.14 48.544l39.932 438.996c2.426 26.699-17.54 48.544-44.336 48.544M415.128 130.647h-73.106L317.653 471.79h97.474v-341.144z m146.211 0h-97.474V471.79h97.474v-341.144z m121.842 0h-73.106V471.79h97.474l-24.368-341.144z"  horiz-adv-x="1024" />

    
    <glyph glyph-name="iconzhenghe31" unicode="&#59180;" d="M165.15072-62.170112l0 55.84384c0 162.149376 131.447808 293.59616 293.59616 293.59616l131.0464 0c162.147328 0 293.59616-131.44576 293.59616-293.59616l0-55.84384 66.07872 0 0 53.501952c0 163.602432-115.971072 301.626368-267.930624 344.814592 69.67296 49.221632 115.1744 130.381824 115.1744 222.176256 0 150.13888-121.709568 271.848448-271.848448 271.848448S253.014016 708.460544 253.014016 558.321664c0-90.573824 44.305408-170.786816 112.413696-220.188672C212.068352 297.341952 99.072 157.535232 99.072-8.66816l0-53.501952L165.15072-62.170112zM318.257152 558.321664c0 114.10432 92.499968 206.604288 206.604288 206.604288s206.604288-92.499968 206.604288-206.604288S638.96576 351.717376 524.86144 351.717376 318.257152 444.217344 318.257152 558.321664z"  horiz-adv-x="1024" />

    
    <glyph glyph-name="mima" unicode="&#59022;" d="M858.763636-125.672727H165.236364c-44.218182 0-81.454545 37.236364-81.454546 81.454545V465.454545c0 44.218182 37.236364 81.454545 81.454546 81.454546h693.527272c44.218182 0 81.454545-37.236364 81.454546-81.454546v-509.672727c0-44.218182-37.236364-81.454545-81.454546-81.454545zM165.236364 477.090909c-6.981818 0-11.636364-4.654545-11.636364-11.636364v-509.672727c0-6.981818 4.654545-11.636364 11.636364-11.636363h693.527272c6.981818 0 11.636364 4.654545 11.636364 11.636363V465.454545c0 6.981818-4.654545 11.636364-11.636364 11.636364H165.236364zM779.636364 495.709091h-6.981819c-18.618182 4.654545-30.254545 23.272727-27.927272 41.890909 2.327273 16.290909 4.654545 30.254545 4.654545 46.545455 0 132.654545-107.054545 239.709091-239.709091 239.70909-132.654545 0-239.709091-107.054545-239.709091-239.70909 0-16.290909 2.327273-30.254545 4.654546-44.218182 4.654545-18.618182-9.309091-37.236364-27.927273-41.890909-18.618182-4.654545-37.236364 9.309091-41.890909 27.927272-4.654545 18.618182-4.654545 39.563636-4.654545 58.181819C202.472727 756.363636 342.109091 893.672727 512 893.672727s309.527273-139.636364 309.527273-309.527272c0-20.945455-2.327273-41.890909-6.981818-60.509091-2.327273-16.290909-18.618182-27.927273-34.909091-27.927273zM512 114.036364c-20.945455 0-37.236364 16.290909-37.236364 34.909091v121.018181c0 18.618182 16.290909 34.909091 34.909091 34.909091h2.327273c18.618182 0 34.909091-16.290909 34.909091-34.909091v-121.018181c0-18.618182-13.963636-34.909091-34.909091-34.909091z"  horiz-adv-x="1024" />

    
    <glyph glyph-name="ren" unicode="&#58914;" d="M959.7 66c0 136.1-78.2 252.5-188.7 300 53.5 38.6 88.8 104.3 88.8 179 0 101.9-65.7 187.2-154 209.4-0.8 0.2-1.6 0.1-2.3-0.2-1 0.1-2 0.3-3 0.3-18.9 0-34.1-16.5-34.1-36.8 0-18.4 12.5-33.5 28.8-36.2 2.9-1.3 6.7-2.2 6.9-2.3C753.2 660.5 790 608.4 790 547c0-68.5-45.8-125.4-106.1-137.3-0.1 0-0.2-0.2-0.2-0.2-20.1-1.4-36-19.2-36-41.2 0-22.3 16.4-40.4 36.9-41.3 0.1-0.1 0.3-0.3 0.4-0.3 121.2-13.5 207.2-125 207.2-260.7 0-20.1 15.1-36.4 33.7-36.4 18.2 0 32.9 15.5 33.6 34.9 0 0.2 0.1 0.3 0.1 0.5v0.2c0.1 0.3 0.1 0.5 0.1 0.8zM555.5 359.9c63.9 46.2 106 124.8 106 214 0 142.2-106.9 257.5-238.7 257.5-131.8 0-238.7-115.3-238.7-257.5 0-89.2 42.1-167.8 106-214C158 303 64.6 163.8 64.6 1c0-9.2 0.5-18.2 1.1-27.2h0.1C65.7-46 80.6-62 99-62c18.4 0 33.3 16.1 33.3 35.9 0 1.1-0.2 2.2-0.3 3.3-0.6 7.9-1.2 15.8-1.2 23.9 0 173.9 130.8 315 292.1 315s292.1-141 292.1-315c0-8.4-0.5-16.6-1.2-24.8 0-0.4-0.1-0.8-0.1-1.2v-1.1h0.1c0.5-19.3 15.1-34.8 33.2-34.8 18 0 32.6 15.5 33.2 34.8h0.1c0.6 9 1.1 18 1.1 27.2-0.3 162.6-93.7 301.8-225.9 358.7zM422.8 389c-94.7 0-171.5 82.8-171.5 184.9 0 102.1 76.8 184.9 171.5 184.9S594.3 676 594.3 573.9c0-102.1-76.7-184.9-171.5-184.9z"  horiz-adv-x="1024" />

    
    <glyph glyph-name="mima1" unicode="&#58892;" d="M519.6 25.6c-101.5-101.5-266.1-101.5-367.5 0C50.5 127.1 50.5 291.6 152 393.1c91.6 91.6 234.4 100.2 336 26.5L819.4 751c10.7 10.7 28 10.7 38.7 0 10.7-10.7 10.7-28 0-38.7l-38.7-38.7 96.7-96.7c10.7-10.7 10.7-28 0-38.7-10.7-10.7-28-10.7-38.7 0l-96.7 96.7-58-58 96.7-96.7c10.7-10.7 10.7-28 0-38.7-10.7-10.7-27.9-10.7-38.7 0L684 538.2 528.7 382.9C620.6 280.9 617.8 123.8 519.6 25.6zM190.7 354.4c-80.1-80.1-80.2-210 0-290.2 80.1-80.1 210-80.2 290.2 0 80.1 80.1 80.1 210 0 290.2C400.7 434.6 270.8 434.5 190.7 354.4z"  horiz-adv-x="1024" />

    
    <glyph glyph-name="daoru" unicode="&#58903;" d="M252.277724 134.841314 252.277724 631.694335c0 27.442002 23.359011 49.803289 50.801013 49.803289l447.549106 0 0 49.567929c0 27.442002-22.6253 49.692772-50.067302 49.692772L203.708542 780.758326c-27.442002 0-50.690496-22.251793-50.690496-49.692772l0-695.594435c0-27.438932 23.249517-49.821709 50.690496-49.821709l496.853022 0c27.442002 0 50.067302 22.3838 50.067302 49.821709l0 50.462299L303.078737 85.933417C275.636734 85.933417 252.277724 107.403404 252.277724 134.841314zM424.593278 434.132794l143.002948 134.451178c19.829628 18.674315 51.095725 17.783015 69.861114-2.095731 18.671245-19.854187 17.755386-51.142797-2.122337-69.814042l-67.825758-63.83998 254.327406 0c27.442002 0 49.685609-21.676695 49.685609-49.118698 0-27.438932-22.243607-49.118698-49.685609-49.118698L567.508221 334.596823l67.825758-64.284095c19.878746-18.674315 20.794605-50.154283 2.122337-70.00847-9.743922-10.313903-22.868847-15.644305-35.990702-15.644305-12.157901 0-24.317848 4.370541-33.870412 13.356193L424.641373 332.386482c-14.08581 13.231349-22.192442 31.768541-22.192442 50.897204C402.448932 402.416442 410.555563 420.953633 424.593278 434.132794z"  horiz-adv-x="1024" />

    
    <glyph glyph-name="gou" unicode="&#58893;" d="M919.701333 574.890667 437.866667 103.936c-25.109333-24.618667-65.856-24.618667-90.965333 0L104.298667 341.696c-25.109333 24.618667-25.109333 64.533333 0 89.173333 25.109333 24.618667 65.856 24.618667 90.986667 0l197.162667-193.237333 436.288 426.453333c25.109333 24.618667 65.834667 24.618667 90.965333 0C944.832 639.424 944.832 599.509333 919.701333 574.890667z"  horiz-adv-x="1024" />

    
    <glyph glyph-name="cha1" unicode="&#59066;" d="M851.73203 634.204505L261.876847 44.347277l-90.248443 90.248443 589.857229 589.857229zM261.869684 724.459089l589.857229-589.857229-90.248443-90.248444-589.857229 589.857229z"  horiz-adv-x="1024" />

    
    <glyph glyph-name="iconfontjiantou-copy-copy" unicode="&#58898;" d="M625.501 108.5l-274.256 274.256 274.256 274.256z"  horiz-adv-x="1024" />

    
    <glyph glyph-name="right" unicode="&#58886;" d="M742.796 358.612l-412.302-365.316c-13.53-13.092-35.468-13.092-49 0-13.53 13.088-13.53 34.31 0 47.404l387.449 343.296-387.449 343.305c-13.53 13.088-13.53 34.306 0 47.398 13.534 13.092 35.472 13.092 49 0l412.302-365.32c7.215-6.988 10.291-16.242 9.808-25.384 0.484-9.142-2.592-18.404-9.808-25.384z"  horiz-adv-x="1024" />

    
    <glyph glyph-name="jiantou3xia" unicode="&#58887;" d="M674.944 384l-325.889-285.153v570.304z"  horiz-adv-x="1024" />

    
    <glyph glyph-name="erjiyemianjiantou01" unicode="&#58888;" d="M726.356 830.293c9.403 0.001 18.791-3.688 25.812-11.013 13.658-14.254 13.177-36.881-1.076-50.539l-401.734-384.996 401.735-384.993c14.253-13.659 14.734-36.285 1.075-50.538-13.659-14.252-36.285-14.734-50.538-1.075l-428.663 410.801c-7.035 6.742-11.013 16.063-11.013 25.807s3.978 19.065 11.013 25.807l428.663 410.803c6.927 6.637 15.834 9.937 24.725 9.937z"  horiz-adv-x="1024" />

    
    <glyph glyph-name="jiantouxia" unicode="&#59092;" d="M805.206902 591.1406256666667L511.991814 256.05287066666676 218.794122 591.1416486666667h586.41278z"  horiz-adv-x="1024" />

    
    <glyph glyph-name="jiantouxia1" unicode="&#59098;" d="M218.793 262.192l293.215 335.088 293.198-335.089h-586.414z"  horiz-adv-x="1024" />

    
    <glyph glyph-name="jiantou1" unicode="&#58890;" d="M266.845 379.918c3.864-3.864 8.486-6.464 13.361-8.233l425.096-425.096c14.083-14.119 36.941-14.119 51.062 0 14.119 14.119 14.119 36.977 0 51.062l-410.327 410.362 410.327 410.362c14.119 14.119 14.119 36.941 0 51.062-14.119 14.119-36.977 14.119-51.062 0l-425.096-425.096c-4.875-1.769-9.496-4.333-13.361-8.233-7.728-7.728-10.833-18.018-10.076-28.094-0.758-10.075 2.348-20.366 10.076-28.094v0z"  horiz-adv-x="1024" />

    
    <glyph glyph-name="erjiyemianjiantou011" unicode="&#58891;" d="M65.707 598.356c-0.001 9.403 3.688 18.791 11.013 25.812 14.254 13.658 36.881 13.177 50.539-1.076l384.996-401.734 384.993 401.735c13.659 14.253 36.285 14.734 50.538 1.075 14.252-13.659 14.734-36.285 1.075-50.538l-410.801-428.663c-6.742-7.035-16.063-11.013-25.807-11.013s-19.065 3.978-25.807 11.013l-410.803 428.663c-6.637 6.927-9.937 15.834-9.937 24.725z"  horiz-adv-x="1024" />

    
    <glyph glyph-name="iconfontshezhichilun" unicode="&#58885;" d="M888.23 466.436l-86.447 28.834c-1.708 4.435-3.553 8.841-5.535 13.247l40.786 81.516c5.425 10.85 3.306 23.96-5.287 32.551l-79.753 79.755c-8.592 8.619-21.673 10.713-32.551 5.287l-81.543-40.758c-4.407 1.957-8.813 3.801-13.218 5.507l-28.834 86.447c-3.829 11.51-14.597 19.276-26.74 19.276h-112.801c-12.143 0-22.912-7.767-26.74-19.278l-28.834-86.445c-4.406-1.707-8.841-3.553-13.218-5.507l-81.543 40.757c-10.85 5.452-23.96 3.331-32.551-5.288l-79.755-79.754c-8.592-8.592-10.713-21.701-5.287-32.551l40.758-81.543c-1.957-4.379-3.801-8.813-5.507-13.218l-86.447-28.834c-11.51-3.829-19.276-14.597-19.276-26.74v-112.801c0-12.143 7.767-22.913 19.278-26.74l86.447-28.834c1.707-4.407 3.553-8.841 5.535-13.247l-40.788-81.516c-5.425-10.85-3.306-23.96 5.287-32.551l79.753-79.753c8.619-8.619 21.728-10.739 32.551-5.288l81.543 40.758c4.406-1.957 8.813-3.801 13.218-5.507l28.834-86.447c3.829-11.512 14.597-19.278 26.74-19.278h112.801c12.143 0 22.912 7.767 26.768 19.278l28.778 86.419c4.406 1.734 8.841 3.579 13.247 5.535l81.543-40.758c10.822-5.425 23.932-3.331 32.551 5.288l79.753 79.753c8.592 8.592 10.713 21.701 5.287 32.551l-40.758 81.543c1.957 4.406 3.801 8.813 5.507 13.218l86.447 28.834c11.512 3.829 19.278 14.597 19.278 26.74v112.801c0.002 12.143-7.765 22.913-19.276 26.74zM851.108 347.219l-80.084-26.713c-8.399-2.782-15.009-9.391-17.817-17.791-3.578-10.713-8.124-21.619-13.522-32.441-3.937-7.93-3.937-17.24 0.029-25.171l37.784-75.594-51.002-51.002-75.594 37.784c-7.904 3.965-17.267 3.965-25.171 0.029-10.823-5.397-21.758-9.942-32.441-13.522-8.428-2.809-15.037-9.419-17.844-17.818l-26.657-80.084h-72.153l-26.713 80.084c-2.782 8.399-9.391 15.010-17.791 17.818-10.713 3.579-21.619 8.124-32.441 13.522-7.93 3.938-17.295 3.938-25.171-0.029l-75.594-37.784-51.002 51.002 37.811 75.594c3.965 7.93 3.965 17.295 0 25.226-5.371 10.739-9.914 21.647-13.522 32.387-2.809 8.399-9.419 15.010-17.818 17.791l-80.083 26.713v72.153l80.083 26.713c8.399 2.782 15.010 9.391 17.818 17.791 3.608 10.768 8.152 21.647 13.492 32.332 3.993 7.959 3.993 17.295 0.029 25.252l-37.811 75.623 51.002 51.002 75.622-37.811c7.93-3.965 17.267-3.993 25.253 0.029 10.685 5.343 21.563 9.887 32.332 13.493 8.399 2.809 15.010 9.419 17.791 17.817l26.711 80.083h72.153l26.713-80.084c2.782-8.399 9.391-15.009 17.791-17.818 10.713-3.579 21.619-8.124 32.441-13.522 7.904-3.91 17.267-3.91 25.171 0.029l75.594 37.784 51.002-51.002-37.811-75.594c-3.965-7.93-3.965-17.295 0-25.227 5.371-10.739 9.914-21.647 13.522-32.387 2.809-8.399 9.419-15.009 17.818-17.791l80.084-26.713v-72.153zM512.705 524.296c-77.855 0-141.001-63.147-141.001-141.001 0-77.881 63.147-141.001 141.001-141.001 77.881 0 141.001 63.12 141.001 141.001 0 77.855-63.12 141.001-141.001 141.001zM512.705 298.695c-46.652 0-84.601 37.948-84.601 84.601s37.949 84.601 84.601 84.601 84.601-37.949 84.601-84.601-37.949-84.601-84.601-84.601z"  horiz-adv-x="1024" />

    
    <glyph glyph-name="tubiao3zhuanhuan" unicode="&#59183;" d="M512-10.667c-217.963 0-394.667 176.683-394.667 394.667 0 217.963 176.704 394.667 394.667 394.667s394.667-176.704 394.667-394.667c0-217.984-176.704-394.667-394.667-394.667zM512 736c-194.41 0-352-157.611-352-352s157.589-352 352-352 352 157.611 352 352-157.589 352-352 352zM578.73 208.491c-8.299-8.256-21.739-8.256-30.016 0s-8.277 21.653 0 29.888l72.448 71.317h-269.29c-11.712 0-21.205 9.451-21.205 21.142s9.493 21.163 21.205 21.163h318.25c1.835 0 3.499-0.597 5.205-1.045 4.373-0.619 8.662-2.24 12.032-5.632 8.299-8.256 8.299-21.653 0-29.888l-108.629-106.944zM672 416h-320c-1.92 0-3.648 0.619-5.419 1.088-4.33 0.661-8.576 2.283-11.925 5.653-8.341 8.341-8.341 21.824 0 30.165l109.248 107.883c8.341 8.341 21.824 8.341 30.165 0 8.341-8.32 8.341-21.824 0-30.165l-72.853-71.957h270.784c11.797 0 21.334-9.557 21.334-21.334 0-11.797-9.536-21.334-21.334-21.334z"  horiz-adv-x="1024" />

    
    <glyph glyph-name="play" unicode="&#59594;" d="M512-17.786c-221.906 0-401.786 179.88-401.786 401.786 0 221.887 179.88 401.786 401.786 401.786 221.887 0 401.786-179.899 401.786-401.786 0-221.906-179.899-401.786-401.786-401.786zM512 710.451c-180.302 0-326.451-146.149-326.451-326.451 0-180.281 146.149-326.431 326.451-326.431 180.281 0 326.431 146.149 326.431 326.431 0 180.302-146.13 326.451-326.431 326.451zM631.491 351.516l-199.748-125.197-0.161 0.261c-1.406-0.904-2.933-1.707-4.479-2.411-0.040-0.040-0.1-0.060-0.161-0.081-1.508-0.664-3.073-1.266-4.661-1.728-0.12-0.040-0.242-0.060-0.362-0.1-0.682-0.202-1.366-0.401-2.090-0.522-0.12-0.060-0.242-0.081-0.362-0.1-0.803-0.18-1.607-0.322-2.411-0.422-0.141 0-0.261-0.040-0.382-0.060-0.682-0.081-1.366-0.161-2.069-0.22-0.202 0-0.422-0.040-0.642-0.060-0.803-0.040-1.607-0.081-2.451-0.081-20.792 0-37.667 16.854-37.667 37.667v0 0 251.116c0 20.813 16.875 37.667 37.667 37.667 7.896 0 15.208-2.431 21.274-6.57l198.382-123.991c11.29-6.489 18.904-18.683 18.904-32.664 0.040-13.841-7.453-25.936-18.582-32.505v0z"  horiz-adv-x="1024" />

    
    <glyph glyph-name="filter" unicode="&#58957;" d="M960.030 13.211h-529.697c-16.255 0-29.427 13.837-29.427 30.9v61.798c0 17.063 13.172 30.898 29.427 30.898h529.697c16.249 0 29.427-13.837 29.427-30.898v-61.798c0-17.063-13.178-30.9-29.427-30.9v0zM960.030 322.202h-529.697c-16.255 0-29.427 13.837-29.427 30.898v61.798c0 17.063 13.172 30.898 29.427 30.898h529.697c16.249 0 29.427-13.837 29.427-30.898v-61.798c0-17.065-13.178-30.898-29.427-30.898v0zM960.030 631.193h-529.697c-16.255 0-29.427 13.837-29.427 30.898v61.798c0 17.063 13.172 30.9 29.427 30.9h529.697c16.249 0 29.427-13.837 29.427-30.9v-61.798c0-17.063-13.178-30.898-29.427-30.898v0zM253.767 13.211h-58.857c-16.255 0-29.427 13.837-29.427 30.9v61.798c0 17.063 13.172 30.898 29.427 30.898h58.857c16.249 0 29.427-13.837 29.427-30.898v-61.798c0-17.063-13.177-30.9-29.427-30.9v0zM253.767 322.202h-58.857c-16.255 0-29.427 13.837-29.427 30.898v61.798c0 17.063 13.172 30.898 29.427 30.898h58.857c16.249 0 29.427-13.837 29.427-30.898v-61.798c0-17.065-13.177-30.898-29.427-30.898v0zM253.767 631.193h-58.857c-16.255 0-29.427 13.837-29.427 30.898v61.798c0 17.063 13.172 30.9 29.427 30.9h58.857c16.249 0 29.427-13.837 29.427-30.9v-61.798c0-17.063-13.177-30.898-29.427-30.898v0z"  horiz-adv-x="1138" />

    
    <glyph glyph-name="cog" unicode="&#59198;" d="M640.572 384q0 53.236-37.667 90.905t-90.905 37.667-90.905-37.667-37.667-90.905 37.667-90.905 90.905-37.667 90.905 37.667 37.667 90.905zM897.714 438.743v-111.495q0-6.026-4.017-11.552t-10.045-6.53l-92.913-14.063q-9.542-27.12-19.587-45.703 17.578-25.111 53.739-69.308 5.022-6.026 5.022-12.556t-4.521-11.552q-13.561-18.583-49.72-54.241t-47.21-35.658q-6.026 0-13.058 4.521l-69.307 54.241q-22.099-11.552-45.703-19.085-8.036-68.303-14.564-93.415-3.516-14.063-18.080-14.063h-111.495q-7.031 0-12.305 4.268t-5.775 10.798l-14.063 92.411q-24.609 8.036-45.202 18.583l-70.814-53.739q-5.022-4.521-12.556-4.521-7.031 0-12.556 5.525-63.281 57.255-82.868 84.375-3.516 5.022-3.516 11.552 0 6.026 4.017 11.552 7.533 10.547 25.614 33.398t27.12 35.407q-13.561 25.111-20.592 49.72l-91.908 13.561q-6.53 1.005-10.547 6.278t-4.017 11.803v111.495q0 6.026 4.017 11.552t9.542 6.53l93.415 14.063q7.031 23.103 19.587 46.205-20.089 28.627-53.739 69.308-5.022 6.026-5.022 12.053 0 5.022 4.521 11.552 13.058 18.080 49.47 53.991t47.461 35.909q6.53 0 13.058-5.022l69.307-53.739q22.099 11.552 45.703 19.085 8.036 68.303 14.564 93.415 3.516 14.063 18.080 14.063h111.495q7.031 0 12.305-4.268t5.775-10.798l14.063-92.411q24.609-8.036 45.202-18.583l71.317 53.739q4.521 4.521 12.053 4.521 6.53 0 12.556-5.022 64.788-59.766 82.868-85.38 3.516-4.017 3.516-11.048 0-6.026-4.017-11.552-7.533-10.547-25.614-33.398t-27.12-35.407q13.058-25.111 20.592-49.219l91.908-14.063q6.53-1.005 10.547-6.278t4.017-11.803z"  horiz-adv-x="1024" />

    
    <glyph glyph-name="shujuzhuanhuan" unicode="&#58994;" d="M123.84 465.12h776.267c6.82-5.386 15.543-8.64 25.024-8.64 22.401 0 40.56 18.159 40.56 40.56 0 22.339-18.059 40.46-40.374 40.56-4.661 5.903-10.777 10.454-17.82 13.131l-280.777 198.549c-6.522 4.654-14.656 7.441-23.44 7.441-22.446 0-40.641-18.196-40.641-40.641 0-13.661 6.741-25.748 17.077-33.116l194.631-136.591h-650.507c-22.437 0-40.628-18.189-40.628-40.626s18.189-40.626 40.628-40.626zM900.133 302.827h-776.293c-6.842 5.435-15.605 8.72-25.135 8.72-22.416 0-40.586-18.172-40.586-40.586 0-22.393 18.134-40.55 40.519-40.586 2.404-3.067 5.284-5.84 8.643-8.213l289.973-203.52c6.502-4.612 14.602-7.372 23.342-7.372 13.687 0 25.797 6.768 33.159 17.139l0.112 0.18c4.608 6.503 7.365 14.599 7.365 23.341 0 13.702-6.775 25.82-17.159 33.188l-194.446 136.432h650.507c22.445 0 40.64 18.195 40.64 40.64s-18.195 40.64-40.64 40.64z"  horiz-adv-x="1024" />

    
    <glyph glyph-name="shaixuan" unicode="&#58942;" d="M520.431 28.365v52.414c41.28 7.822 72.325 41.888 72.325 82.797 0 40.881-31.045 74.976-72.325 82.797v491.879c0 9.333-8.085 16.914-18.055 16.914-9.996 0-18.080-7.581-18.080-16.914v-491.854c-41.252-7.822-72.298-41.888-72.298-82.797 0-40.881 31.045-74.976 72.298-82.797v-52.414c0-9.333 8.085-16.914 18.080-16.914 9.968 0 18.055 7.581 18.055 16.914zM755.461 738.256v-86.218c-41.252-7.822-72.325-41.888-72.325-82.797 0-40.881 31.073-74.976 72.325-82.797v-458.076c0-9.333 8.060-16.914 18.055-16.914s18.080 7.581 18.080 16.914v458.076c41.227 7.822 72.298 41.888 72.298 82.797 0 40.881-31.073 74.976-72.298 82.797v86.218c0 9.333-8.085 16.914-18.080 16.914s-18.055-7.581-18.055-16.914zM249.316 28.365v322.838c41.252 7.847 72.298 41.917 72.298 82.825 0 40.881-31.045 74.976-72.298 82.797v221.428c0 9.333-8.113 16.914-18.080 16.914-9.996 0-18.080-7.581-18.080-16.914v-221.428c-41.252-7.822-72.325-41.917-72.325-82.797 0-40.909 31.073-74.976 72.325-82.825v-322.838c0-9.333 8.085-16.914 18.080-16.914 9.968 0 18.080 7.581 18.080 16.914z"  horiz-adv-x="1024" />

    
    <glyph glyph-name="mianxingtubiaoxuanji" unicode="&#58981;" d="M832 21.312h-256c-23.552 0-42.667 19.115-42.667 42.667v256c0 23.552 19.115 42.667 42.667 42.667h256c23.552 0 42.667-19.115 42.667-42.667v-256c0-23.552-19.115-42.667-42.667-42.667zM832 426.645h-256c-23.552 0-42.667 19.115-42.667 42.667v256c0 23.552 19.115 42.688 42.667 42.688h256c23.552 0 42.667-19.115 42.667-42.688v-256c0-23.552-19.115-42.667-42.667-42.667zM426.667 21.312h-256c-23.552 0-42.667 19.115-42.667 42.667v256c0 23.552 19.115 42.667 42.667 42.667h256c23.573 0 42.667-19.115 42.667-42.667v-256c0-23.552-19.093-42.667-42.667-42.667zM426.667 426.645h-256c-23.552 0-42.667 19.115-42.667 42.667v256c0 23.552 19.115 42.688 42.667 42.688h256c23.573 0 42.667-19.115 42.667-42.688v-256c0-23.552-19.093-42.667-42.667-42.667zM405.333 682.645c0 11.776-9.536 21.334-21.334 21.334h-170.666c-11.797 0-21.334-9.557-21.334-21.334v-170.666c0-11.776 9.536-21.334 21.334-21.334h170.666c11.797 0 21.334 9.557 21.334 21.334v170.666zM234.667 661.333h128v-128h-128v128z"  horiz-adv-x="1024" />

    
    <glyph glyph-name="bianjichuangjian" unicode="&#59469;" d="M186.017 547.029h164.752v164.902h274.487v-162.767h65.565v228.321h-405.616v-0.496l-164.741-164.406v-622.065h401.783v65.554h-336.229zM727.059 307.096v176.501h-139.245v-176.501h-176.489v-139.222h176.489v-176.489h139.245v176.489h176.477v139.222z"  horiz-adv-x="1024" />

    
    <glyph glyph-name="chuangjianhetou" unicode="&#58884;" d="M886.283 509.831c-9.89 0-17.893-8.020-17.893-17.894v-393.645c0-39.525-32.046-71.572-71.572-71.572h-572.574c-39.525 0-71.572 32.046-71.572 71.572v572.574c0 39.525 32.046 71.572 71.572 71.572h393.645c9.889 0 17.894 8.003 17.894 17.894 0 9.874-8.003 17.893-17.894 17.893h-393.645c-59.288 0-107.358-48.070-107.358-107.358v-572.574c0-59.306 48.069-107.358 107.358-107.358h572.574c59.306 0 107.358 48.052 107.358 107.358v393.645c0 9.874-8.003 17.894-17.894 17.894zM313.71 187.759l152.719 26.194 411.537 411.536c16.196 16.197 26.21 38.563 26.21 63.272 0 49.416-40.050 89.465-89.465 89.465-24.709 0-47.075-10.013-63.255-26.209l-411.537-411.538-26.209-152.719zM776.759 726.712c9.716 9.716 23.137 15.727 37.953 15.727 29.636 0 53.679-24.042 53.679-53.679 0-14.817-6.011-28.254-15.728-37.971l-23.137-23.118-75.906 75.906 23.137 23.137zM728.322 678.278l75.905-75.905-329.482-329.5v75.922h-75.906l329.482 329.483zM372.245 313.008h66.714v-66.714l-80.517-13.805 13.804 80.519z"  horiz-adv-x="1024" />

    
    <glyph glyph-name="liebiao" unicode="&#58880;" d="M483.369 465.339c0-34.058-27.866-61.924-61.924-61.924h-220.090c-34.058 0-61.924 27.866-61.924 61.924v229.459c0 34.058 27.866 61.924 61.924 61.924h220.091c34.058 0 61.924-27.866 61.924-61.924v-229.459zM483.369 72.464c0-34.059-27.866-61.924-61.924-61.924h-220.090c-34.058 0-61.924 27.866-61.924 61.924v229.454c0 34.059 27.866 61.924 61.924 61.924h220.091c34.058 0 61.924-27.866 61.924-61.924v-229.454zM885.61 465.339c0-34.058-27.866-61.924-61.924-61.924h-220.102c-34.059 0-61.924 27.866-61.924 61.924v229.459c0 34.058 27.866 61.924 61.924 61.924h220.102c34.059 0 61.924-27.866 61.924-61.924v-229.459zM885.612 72.464c0-34.059-27.866-61.924-61.924-61.924h-220.103c-34.059 0-61.924 27.866-61.924 61.924v229.454c0 34.059 27.866 61.924 61.924 61.924h220.103c34.059 0 61.924-27.866 61.924-61.924v-229.454z"  horiz-adv-x="1024" />

    
    <glyph glyph-name="liebiao1" unicode="&#58899;" d="M128.007168 516.684544l769.184768 0c12.493824 0 22.623232 10.128384 22.623232 22.623232s-10.129408 22.623232-22.623232 22.623232L128.007168 561.931008c-12.494848 0-22.623232-10.128384-22.623232-22.623232S115.513344 516.684544 128.007168 516.684544zM897.19296 324.387584 128.007168 324.387584c-12.494848 0-22.623232-10.128384-22.623232-22.623232s10.128384-22.623232 22.623232-22.623232l769.184768 0c12.493824 0 22.623232 10.128384 22.623232 22.623232S909.686784 324.387584 897.19296 324.387584zM897.19296 86.846208 128.007168 86.846208c-12.494848 0-22.623232-10.129408-22.623232-22.623232s10.128384-22.623232 22.623232-22.623232l769.184768 0c12.493824 0 22.623232 10.129408 22.623232 22.623232S909.686784 86.846208 897.19296 86.846208z"  horiz-adv-x="1024" />

    
    <glyph glyph-name="14052218" unicode="&#58983;" d="M512 698.593024c-219.789312 0-398.601216-178.816-398.601216-398.61248 0-219.773952 178.811904-398.573568 398.601216-398.573568s398.601216 178.799616 398.601216 398.573568C910.601216 519.776 731.789312 698.593024 512 698.593024zM552.2176 8.905472l-80.04608 0 0 80.04608 80.04608 0L552.2176 8.905472zM679.120896 365.794048c-11.713536-21.086208-34.623488-46.728192-68.722688-76.92288-22.908928-20.303872-37.874688-35.275776-44.904448-44.904448-7.027712-9.632768-12.237824-20.694016-15.618048-33.188864-3.386368-12.494848-5.339136-32.799744-5.85728-60.913664L476.4672 149.864192c-0.262144 9.371648-0.390144 16.400384-0.390144 21.086208 0 27.588608 3.904512 51.406848 11.713536 71.455744 5.723136 15.09376 14.96576 30.321664 27.722752 45.683712 9.371648 11.190272 26.222592 27.529216 50.566144 49.00352 24.337408 21.476352 40.15104 38.590464 47.44192 51.347456 7.284736 12.750848 10.933248 26.68032 10.933248 41.780224 0 27.332608-10.677248 51.347456-32.018432 72.042496-21.348352 20.69504-47.509504 31.041536-78.485504 31.041536-29.937664 0-54.928384-9.370624-74.970112-28.11392-20.047872-18.742272-33.188864-48.026624-39.437312-87.855104l-72.237056 8.590336c6.504448 53.359616 25.832448 94.230528 57.985024 122.606592 32.146432 28.36992 74.641408 42.560512 127.488 42.560512 55.964672 0 100.606976-15.227904 133.931008-45.683712 33.317888-30.456832 49.980416-67.295232 49.980416-110.502912C696.691712 409.917184 690.835456 386.879232 679.120896 365.794048z"  horiz-adv-x="1024" />

    
    <glyph glyph-name="shijian" unicode="&#58956;" d="M510.308987 685.451816c-211.656561 0-383.228171-171.579797-383.228171-383.229195 0-211.654514 171.57161-383.227148 383.228171-383.227148 211.656561 0 383.228171 171.572634 383.228171 383.227148C893.537158 513.870995 721.965547 685.451816 510.308987 685.451816zM510.308987 21.18897c-155.203828 0-281.034674 125.82266-281.034674 281.033651 0 155.205874 125.830847 281.035698 281.034674 281.035698s281.033651-125.829823 281.033651-281.035698C791.342638 147.01163 665.512814 21.18897 510.308987 21.18897zM501.793032 293.706667 365.533672 293.706667l0-68.12968 204.38904 0L569.922712 481.062775l-68.12968 0L501.793032 293.706667z"  horiz-adv-x="1024" />

    
    <glyph glyph-name="baocun" unicode="&#58916;" d="M871.864 775.627h-720.69c-16.72 0-30.297-13.22-30.297-29.903v-720.693c0-16.719 13.577-30.297 30.297-30.297h720.69c16.291 0 29.868 13.578 29.868 30.297v720.693c0 16.684-13.577 29.903-29.868 29.903v0zM660.502 715.713v0h98.465v-201.431h-98.465v201.431zM275.647 715.284v0h325.119v-177.065h-325.119v177.065zM841.639 55.044v0h-660.74v660.668h34.583v-207.362c0-16.22 12.789-29.222 28.582-30.009h532.765c10.003 0 18.292 7.861 18.292 18.15v219.221h46.516v-660.668zM776.831 381.165v0h-531.051c-9.861 0-17.935-8.146-17.935-18.153v-249.371c0-9.793 8.075-17.867 17.935-17.867h531.051c10.003 0 18.292 8.076 18.292 17.867v249.371c0 10.006-8.289 18.153-18.292 18.153v0zM758.966 131.788v0h-495.323v213.362h495.323v-213.362h0.001z"  horiz-adv-x="1024" />

    
    <glyph glyph-name="duigou" unicode="&#58889;" d="M472.617 172.703c-9.5 0-19.003 3.629-26.249 10.884l-152.647 152.625c-14.483 14.495-14.483 37.983 0 52.478 14.48 14.495 37.983 14.495 52.471 0l126.425-126.433 322.939 322.978c14.496 14.495 37.99 14.495 52.486 0 14.468-14.478 14.468-37.972 0-52.471l-349.207-349.188c-7.238-7.246-16.748-10.875-26.219-10.875v0zM512.003-11.508c-218.081 0-395.511 177.425-395.511 395.504 0 218.083 177.428 395.513 395.511 395.513 77.795 0 153.1-22.575 217.742-65.283 13.020-8.601 16.597-26.123 8.007-39.143-8.599-13.013-26.123-16.608-39.143-8.007-55.386 36.594-119.918 55.935-186.606 55.935-186.938 0-339.010-152.074-339.010-339.011 0-186.934 152.074-339.007 339.010-339.007 186.934 0 339.007 152.075 339.007 339.007 0 11.798-0.601 23.677-1.808 35.313-1.607 15.525 9.679 29.401 25.196 31.001 15.503 1.611 29.401-9.679 31.001-25.191 1.402-13.556 2.108-27.383 2.108-41.122-0.001-218.080-177.426-395.505-395.506-395.505v0zM512.003-11.508z"  horiz-adv-x="1025" />

    
    <glyph glyph-name="shuaxin" unicode="&#58950;" d="M968.01792 405.85216 859.92448 294.8096c-8.88832-8.78592-23.30624-8.78592-32.2048 0L720.3328 405.85216c-12.76928 15.23712-4.23936 20.65408 4.6592 29.45024l98.33472 0c-27.136 149.80096-156.1088 263.38304-311.43936 263.38304-120.08448 0-224.54272-67.86048-278.30272-167.86432l-53.63712 21.79072c62.52544 121.52832 187.5968 204.5952 331.93984 204.5952 187.20768 0 341.87264-139.66336 369.65376-321.90464l81.82784 0C972.25728 426.50624 976.91648 414.64832 968.01792 405.85216zM197.2736 429.4656l108.10368-111.04256c8.88832-8.78592 4.23936-20.66432-4.6592-29.45024l-93.60384 0c37.61152-135.09632 159.73376-234.11712 304.77312-234.11712 110.37696 0 207.48288 57.38496 264.22272 144.32256l54.19008-22.016c-65.9968-108.38016-183.72608-180.8384-318.4128-180.8384-177.01888 0-324.70016 124.95872-363.74528 292.64896L62.34112 288.9728c-8.88832 8.78592-17.41824 14.21312-4.64896 29.45024L165.0688 429.4656C173.95712 438.25152 188.38528 438.25152 197.2736 429.4656z"  horiz-adv-x="1024" />

    
    <glyph glyph-name="tuichu" unicode="&#58958;" d="M575.695 259.507c-3.217 0-5.726 0-8.227 0-85.961 0-171.921-0.008-257.884 0-12.744 0.005-21.050 5.844-23.097 16.295-0.402 2.088-0.365 4.281-0.365 6.416-0.016 76.39-0.018 152.776-0.010 229.165 0.003 14.489 7.849 22.197 22.563 22.197 86.35 0.005 172.702 0.005 259.057 0.005 2.325 0 4.667 0 7.963 0 0 2.479 0 4.713 0 6.953 0 67.986-0.008 135.976 0.008 203.967 0 9.356 4.461 16.818 12.015 19.676 8.693 3.292 16.404 1.776 22.958-5.148 3.757-3.97 7.849-7.622 11.707-11.483 48.678-48.573 97.348-97.167 146.013-145.74 62.508-62.372 125.020-124.728 187.528-187.096 10.406-10.373 10.463-21.315 0.18-31.577-89.455-89.302-178.9-178.611-268.382-267.877-25.448-25.387-51.034-50.62-76.461-76.029-6.544-6.547-13.843-9.417-22.777-6.025-8.688 3.296-12.779 10.133-12.779 20.888-0.013 65.834-0.008 131.677-0.008 197.512-0.001 2.326-0.001 4.646-0.001 7.902zM415.006 762.018c0-25.853 0-51.166 0-77.192-2.533 0-4.814 0-7.093 0-65.448 0-130.896 0.008-196.343-0.005-41.473-0.007-72.013-30.609-72.015-72.164-0.007-143.791 0.258-287.58-0.173-431.36-0.119-38.044 28.823-65.452 55.583-70.458 5.913-1.094 12.021-1.591 18.039-1.604 64.861-0.114 129.724-0.070 194.587-0.070 2.304 0 4.612 0 7.297 0 0-25.774 0-51.078 0-76.75-0.922-0.185-2-0.597-3.079-0.597-68.965 0-137.937-0.703-206.885 0.299-67.386 0.967-127.059 52.106-139.919 118.297-1.815 9.325-2.703 18.98-2.713 28.481-0.167 145.358-0.551 290.708 0.090 436.056 0.268 60.713 30.432 104.295 83.109 132.62 18.584 9.998 39.113 14.512 60.273 14.565 68.377 0.185 136.753 0.070 205.132 0.066 1.156-0.001 2.309-0.102 4.111-0.183z"  horiz-adv-x="1027" />

    
    <glyph glyph-name="home" unicode="&#58913;" d="M883.762 340.851c-5.731 0-11.483 2.2-15.831 6.592l-355.827 358.149-355.828-358.149c-8.673-8.75-22.815-8.792-31.553-0.097-8.75 8.683-8.793 22.815-0.11 31.552l371.66 374.071c8.4 8.438 23.282 8.438 31.661 0l371.648-374.071c8.694-8.738 8.651-22.869-0.098-31.553-4.349-4.326-10.036-6.494-15.724-6.494zM804.75 10.312h-169.301c-12.322 0-22.312 10.002-22.312 22.313v250.176h-197.237v-250.177c0-12.311-9.991-22.313-22.313-22.313h-174.139c-12.323 0-22.313 10.002-22.313 22.313v410.074c0 12.311 9.991 22.313 22.313 22.313s22.313-10.002 22.313-22.313v-387.762h129.512v250.178c0 12.334 9.991 22.313 22.313 22.313h241.862c12.323 0 22.313-9.981 22.313-22.313v-250.178h124.674v387.761c0 12.312 9.991 22.313 22.313 22.313 12.311 0 22.313-10.002 22.313-22.313v-410.074c-0.002-12.311-10.002-22.313-22.313-22.313z"  horiz-adv-x="1024" />

    
    <glyph glyph-name="xiangpi" unicode="&#58968;" d="M1032.172 510.647l-296.389 296.389c-39.846 39.846-102.951 41.514-140.834 3.631l-445.762-445.762c-37.883-37.883-36.214-100.988 3.533-140.834l75.275-75.275 95.983-94.805c15.31-15.31 30.522-29.148 45.44-41.318 0.196-0.294 0.491-0.491 0.785-0.785 25.517-25.026 72.625-48.090 72.625-48.090s0.098 0.098 0.196 0.196c43.281-21.591 84.697-29.345 123.168-22.867 32.092 5.398 61.731 20.806 85.58 44.655l384.030 384.030c37.687 37.785 36.214 101.086-3.631 140.834zM1011.562 393.956l-315.625-315.723-348.208 348.208c-6.576 6.576-17.469 6.576-24.045 0s-6.576-17.469 0-24.045l348.208-348.208-44.164-44.164c-55.548-55.548-124.935-36.509-165.075-17.567 0.098 0.491-0.098 0.687-0.687 0.294 0 0 0 0 0 0-1.963 0.981-3.926 1.865-5.79 2.846-0.294 0.196-0.687 0.294-0.981 0.491-13.544 7.655-43.968 26.891-60.848 40.238-0.098 0.098-0.294 0.294-0.393 0.393-1.472 1.178-3.042 2.454-4.515 3.729-0.883 0.785-1.668 1.472-2.454 2.257-0.589 0.491-0.981 0.687-0.981 0.687s0 0 0 0c-12.464 10.501-25.124 22.18-37.883 34.84l-0.098 0.098-95.983 94.805-75.177 75.177c-26.498 26.498-28.069 68.111-3.533 92.646l445.664 445.565c24.536 24.536 66.050 22.965 92.646-3.533l296.389-296.389c26.498-26.498 28.069-68.111 3.533-92.646z"  horiz-adv-x="1198" />

    
    <glyph glyph-name="youfang" unicode="&#59008;" d="M718.423 618.138c0 36.917-0.039 95.903 0 129.966 0.030 21.75-5.037 26.946 15.415 26.98 31.749 0 43.591 0.039 75.34-0.035 16.373-0.044 22.041-6.173 22.080-24.579 0.074-72.895 0.249-145.833-0.214-218.733-0.071-11.249 2.907-18.473 11.231-25.623 34.803-29.732 68.929-60.294 103.229-90.665 16.829-14.905 17.257-22.167 3.082-39.891-8.571-10.763-16.972-21.717-25.619-32.445-10.627-13.281-19.421-14.111-32.139-2.819-121.799 107.934-243.598 215.947-365.431 323.921-4.22 3.724-8.537 7.375-13.471 11.667-27.389-24.239-54.569-48.209-81.679-72.259-98.87-87.62-197.739-175.264-296.611-262.878-13.393-11.891-21.721-11.175-32.989 2.825-9.323 11.627-18.604 23.334-27.782 35.069-10.705 13.705-10.277 22.547 2.654 34.098 55.177 49.040 110.497 97.892 165.775 146.815 73.673 65.223 147.419 130.365 221.058 195.701 33.415 29.621 65.948 29.621 99.437-0.223 39.586-35.264 79.278-70.382 118.928-105.529 1.885-1.663 3.869-3.2 7.835-6.475l29.872-24.89zM602.614-8.259v223.735h-180.475v-224.334c-4.394-0.228-7.904-0.569-11.41-0.569-66.41 0-112.942-0.034-179.357 0-22.823 0-38.166 14.637-38.268 38.881-0.462 92.054-0.321 184.18 0.102 276.233 0 4.855 3.685 11.065 7.409 14.375 60.1 53.104 120.521 105.865 180.836 158.673 40.149 35.146 80.269 70.299 120.42 105.412 3.115 2.708 6.31 5.343 10.237 8.697 23.962-20.928 47.806-41.739 71.621-62.589 78.563-68.758 157.024-137.666 235.799-206.167 8.469-7.335 12.085-14.788 12.014-26.64-0.496-87.391-0.355-174.812-0.176-262.164 0.035-15.882-3.69-29.692-16.908-38.462-4.783-3.195-10.846-5.946-16.334-5.984-70.483-0.375-121.055-0.185-191.506-0.145-1.026-0.006-2.095 0.484-4.005 1.049z"  horiz-adv-x="1024" />

    
    <glyph glyph-name="dangemoxingwenjian" unicode="&#59062;" d="M906.144 608.719l-0.394 0.169v0.113l-0.113-0.056-393.637 168.806-393.131-168.356 0.337-0.787-0.956 0.394v-450l393.75-168.75 393.75 168.75v448.819l0.394 0.9zM189.406 578.512l322.594 137.869 322.144-138.038-322.144-138.094-322.594 138.262zM849.5 196.069l-337.5-144.619v327.6l337.5 144.619v-327.6z"  horiz-adv-x="1024" />

    
    <glyph glyph-name="xiaobi" unicode="&#58909;" d="M191.473 246.697c-0.678-0.867-1.355-1.771-1.665-2.864l-52.538-191.519c-3.069-11.148 0.068-23.171 8.374-31.636 6.211-6.038 14.389-9.346 23.104-9.346 2.88 0 5.766 0.347 8.608 1.093l191.269 51.867c0.309 0 0.451-0.272 0.686-0.272 2.201 0 4.356 0.799 5.985 2.451l511.481 508.429c15.188 15.121 23.524 35.721 23.524 58.14 0 25.402-10.838 50.789-29.812 69.596l-48.31 48.107c-18.943 18.86-44.51 29.652-70.048 29.652-22.539 0-43.267-8.283-58.493-23.367l-511.405-508.564c-0.527-0.484-0.375-1.207-0.761-1.764zM836.726 624.684l-50.804-50.465-82.358 83.18 50.081 49.794c7.916 7.906 23.252 6.754 32.352-2.314l48.338-48.107c5.042-5.005 7.915-11.669 7.915-18.257-0.020-5.413-1.959-10.314-5.524-13.835zM282.438 238.706l369.071 366.945 82.401-83.238-368.384-366.221-83.088 82.516zM215.194 89.933l26.669 97.327 71.149-70.735-97.819-26.593zM191.473 246.697c-0.678-0.867-1.355-1.771-1.665-2.864l-52.538-191.519c-3.069-11.148 0.068-23.171 8.374-31.636 6.211-6.038 14.389-9.346 23.104-9.346 2.88 0 5.766 0.347 8.608 1.093l191.269 51.867c0.309 0 0.451-0.272 0.686-0.272 2.201 0 4.356 0.799 5.985 2.451l511.481 508.429c15.188 15.121 23.524 35.721 23.524 58.14 0 25.402-10.838 50.789-29.812 69.596l-48.31 48.107c-18.943 18.86-44.51 29.652-70.048 29.652-22.539 0-43.267-8.283-58.493-23.367l-511.405-508.564c-0.527-0.484-0.375-1.207-0.761-1.764zM836.726 624.684l-50.804-50.465-82.358 83.18 50.081 49.794c7.916 7.906 23.252 6.754 32.352-2.314l48.338-48.107c5.042-5.005 7.915-11.669 7.915-18.257-0.020-5.413-1.959-10.314-5.524-13.835zM282.438 238.706l369.071 366.945 82.401-83.238-368.384-366.221-83.088 82.516zM215.194 89.933l26.669 97.327 71.149-70.735-97.819-26.593z"  horiz-adv-x="1024" />

    
    <glyph glyph-name="xitongmoxing" unicode="&#58978;" d="M636.042 22.19c-16.597 12.279-18.419 30.603-18.419 30.603l-6.235 39.908h-198.773l-6.235-39.908c0 0-1.727-18.419-18.419-30.603-16.597-12.279-29.739-22.736-16.597-24.559 12.663-1.727 131.908-0.096 140.637 0 8.826-0.096 128.070-1.727 140.637 0 13.143 1.822 0 12.279-16.597 24.559v0zM953.578 764.614h-883.158c-21.202 0-38.373-17.172-38.373-38.373v-556.699c0-21.202 17.172-38.373 38.373-38.373h883.062c21.202 0 38.373 17.172 38.373 38.373v556.699c0.096 21.202-17.076 38.373-38.277 38.373v0zM934.393 246.289h-844.785v460.765h844.688l0.096-460.765zM704.537 441.8v64.179h-51.803c-3.645 16.117-9.977 31.178-18.515 44.705l36.646 36.646-45.376 45.376-36.646-36.646c-13.526 8.538-28.588 14.87-44.705 18.515v51.803h-64.179v-51.803c-16.117-3.645-31.178-9.977-44.705-18.515l-36.743 36.646-45.376-45.376 36.646-36.646c-8.538-13.526-14.87-28.588-18.611-44.705h-51.803v-64.179h51.803c3.645-16.117 9.977-31.082 18.515-44.705l-36.646-36.646 45.472-45.28 36.646 36.646c13.526-8.538 28.588-14.87 44.705-18.515v-51.803h64.179v51.803c16.117 3.645 31.178 9.977 44.705 18.515l36.646-36.646 45.376 45.376-36.646 36.646c8.538 13.526 14.87 28.588 18.515 44.705l51.9-0.096zM576.179 473.937c0-35.399-28.78-64.179-64.179-64.179s-64.179 28.78-64.179 64.179 28.684 64.179 64.179 64.179c35.495 0 64.179-28.684 64.179-64.179v0z"  horiz-adv-x="1024" />

    
    <glyph glyph-name="wo" unicode="&#58979;" d="M717.664 283.805c-52.734-47.461-121.289-79.102-200.391-79.102s-147.656 31.641-205.664 79.102c-131.836-68.555-221.484-158.203-221.484-321.68l843.75 0c0 163.477-89.648 247.852-216.211 321.68zM512 267.984c131.836 0 237.305 110.742 237.305 242.578s-105.469 242.578-237.305 242.578-237.305-110.742-237.305-242.578c0-137.109 110.742-242.578 237.305-242.578z"  horiz-adv-x="1024" />

    
    <glyph glyph-name="file" unicode="&#58941;" d="M802.039 564.175l-224.122 215.332h-373.536v-791.015h615.233v558.106l-17.579 17.579zM582.313 717.985l171.387-166.992h-171.387v166.992zM775.673 32.437h-527.344v703.125h290.039v-232.911h237.305v-470.215zM301.062 568.57h175.782v-43.945h-175.782v43.945zM301.062 436.734h413.087v-43.945h-413.087v43.945zM296.668 300.503h413.087v-43.945h-413.087v43.945zM296.668 168.668h413.087v-43.945h-413.087v43.945z"  horiz-adv-x="1024" />

    
    <glyph glyph-name="daochu" unicode="&#58882;" d="M116.492 37.93v692.138c0 27.303 22.134 49.438 49.438 49.438h346.070c27.303 0 49.438-22.134 49.438-49.438s-22.134-49.438-49.438-49.438h-296.631v-593.262h296.631c27.303 0 49.438-22.134 49.438-49.438s-22.134-49.438-49.438-49.438h-346.070c-27.303 0-49.438 22.134-49.438 49.438zM413.123 334.562c-27.303 0-49.438 22.134-49.438 49.438s22.134 49.438 49.438 49.438h296.631v148.316l197.754-197.754-197.754-197.754v148.316h-296.631z"  horiz-adv-x="1024" />

    
    <glyph glyph-name="jianmo" unicode="&#58883;" d="M969.641 333.702c1.469 33.513-29.922 45.692-29.922 45.692l-173.452 74.65s0.474 173.749 0 208.611c-0.519 35.174-31.406 47.25-31.406 47.25s-137.255 55.676-177.962 76.148c-21.199 10.681-43.362 0-43.362 0s-129.066-58.197-169.001-74.635c-36.435-14.998-35.871-47.22-35.871-47.22l-0.015-209.159s-113.741-50.098-161.48-69.235c-45.678-18.292-44.357-56.67-44.357-56.67s0.444-175.885 0-210.184c-0.489-37.043 32.385-48.734 32.385-48.734s110.27-56.774 162.993-81.237c39.002-18.113 64.311-0.519 64.311-0.519l173.2 86.844s136.928-65.72 169.238-86.325c37.385-23.9 62.797-4.080 62.797-4.080s152.683 78.789 176.463 89.871c25.457 11.853 25.457 41.138 25.457 41.138s-1.528 184.282-0.015 217.793zM332.578 268.205l-158.513 70.838 158.513 70.808 161.51-70.066-161.51-71.579zM510.524 118.964l-152.519-77.691v182.768l152.519 67.025v-172.102zM535.58 588.050l-171.583 74.621 171.583 77.201 178.333-77.201-178.333-74.621zM562.877 542.357l151.036 67.011v-156.851l-151.036-68.523v158.365zM743.064 268.205l-157.757 70.838 151.022 70.808 164.521-70.808-157.786-70.838zM917.288 114.38l-149.552-73.107v182.768l149.552 67.025v-176.686z"  horiz-adv-x="1068" />

    
    <glyph glyph-name="xianshi" unicode="&#58925;" d="M984.8 428.1C902 515.8 702.2 704.2 512.3 704.2c-189.9 0-389.9-188.4-472.8-276.1-23.3-24.7-23.3-63.3 0-87.9C122.4 252.4 322.4 64 512.3 64c189.9 0 389.7 188.4 472.5 276.2 23.3 24.7 23.3 63.2 0 87.9z m-46.6-44c-41.8-44.3-107.9-108.4-185.9-162.2-42.3-29.3-83.4-52.1-121.9-67.8-42.5-17.3-82.2-26.1-118.1-26.1-35.9 0-75.7 8.8-118.2 26.1-38.6 15.7-79.6 38.5-122 67.7C194 275.7 127.8 339.8 86 384c41.8 44.3 108 108.3 186.1 162.2 42.4 29.3 83.4 52.1 122 67.7 42.5 17.3 82.3 26.1 118.2 26.1 35.9 0 75.7-8.8 118.1-26.1 38.5-15.7 79.5-38.5 121.9-67.8 78-53.6 144.2-117.7 185.9-162zM511.2 576C405.1 576 319 490 319 383.9s86-192.1 192.1-192.1 192.1 86 192.1 192.1S617.3 576 511.2 576z m90.6-282.8c-24.2-24.2-56.4-37.5-90.6-37.5-34.2 0-66.4 13.3-90.6 37.5-24.2 24.2-37.5 56.4-37.5 90.6s13.3 66.4 37.5 90.6c24.2 24.2 56.4 37.5 90.6 37.5 34.2 0 66.4-13.3 90.6-37.5 24.2-24.2 37.5-56.4 37.5-90.6s-13.3-66.4-37.5-90.6z"  horiz-adv-x="1024" />

    
    <glyph glyph-name="sousuo" unicode="&#58931;" d="M452.115 166.9c-40.606 0-80.006 7.957-117.108 23.648-35.827 15.152-67.997 36.837-95.618 64.455s-49.308 59.788-64.46 95.615c-15.692 37.102-23.647 76.501-23.647 117.105 0 40.61 7.957 80.012 23.647 117.114 15.152 35.827 36.84 67.995 64.461 95.615 27.619 27.613 59.79 49.299 95.618 64.449 37.102 15.688 76.503 23.644 117.107 23.644 40.606 0 80.008-7.955 117.109-23.644 35.827-15.15 67.999-36.836 95.618-64.451 27.62-27.62 49.309-59.787 64.46-95.615 15.691-37.103 23.647-76.505 23.647-117.114 0-40.604-7.957-80.004-23.649-117.106-15.152-35.824-36.838-67.995-64.458-95.614s-59.792-49.304-95.618-64.455c-37.102-15.691-76.504-23.646-117.11-23.646zM452.115 724.699c-141.703 0-256.988-115.279-256.988-256.977s115.284-256.976 256.987-256.976 256.988 115.281 256.988 256.976-115.283 256.977-256.988 256.977zM824.022 27.438c-18.228 0-35.352 7.055-48.236 19.871l-129.747 125.775 30.519 31.48 130.096-126.117c4.62-4.62 10.788-7.163 17.368-7.163 6.578 0 12.743 2.544 17.361 7.162 4.628 4.633 7.182 10.817 7.182 17.405 0 6.576-2.548 12.742-7.171 17.36l-0.248 0.253-125.858 129.828 31.482 30.516 125.749-129.715c12.831-12.886 19.895-30.012 19.895-48.244 0-18.288-7.108-35.475-20.012-48.397-12.911-12.908-30.087-20.013-48.379-20.013zM321.674 337.235c-34.887 34.871-54.096 81.232-54.088 130.536 0.007 49.289 19.215 95.643 54.083 130.523l31.011-30.998c-54.882-54.901-54.885-144.196-0.007-199.053l-31-31.008z"  horiz-adv-x="1024" />

    
    <glyph glyph-name="qingchu" unicode="&#59020;" d="M259.037 28.011l-138.407 137.628c-39.154 38.928-39.154 102.629 0 141.563l426.809 424.377c19.571 19.464 45.381 29.196 71.179 29.196 25.809 0 51.612-9.732 71.189-29.196l213.563-212.349c39.154-38.928 39.154-102.635 0-141.563l-314.947-317.883h291.719c14.536 0 26.298-11.751 26.298-26.281 0-14.526-11.761-26.276-26.298-26.276h-578.511c-23.333 0.998-42.594 20.784-42.594 20.784zM156.225 271.806c-19.625-19.512-19.625-51.263 0-70.781l142.105-141.268h3.173c0.049 0 0.086 0.027 0.128 0.027h210.186l-284.403 282.814-71.189-70.792zM867.78 483.838l-213.568 212.349c-9.421 9.372-22.072 14.531-35.595 14.531s-26.163-5.158-35.589-14.531l-320.024-318.205 284.881-285.616 319.896 320.69c19.619 19.513 19.619 51.269 0 70.782z"  horiz-adv-x="1024" />

    
    <glyph glyph-name="lajitongSS" unicode="&#58881;" d="M771.655 78.479h-519.308v458.586h-45.866v106.627h183.427v45.828h244.226v-45.828h183.389v-106.627h-45.866v-458.586zM267.239 93.413h489.521v458.51h45.828v76.839h-183.427v45.866h-214.36v-45.866h-183.427v-76.839h45.866v-458.51zM311.768 99.076v506.566h20.567v-506.566h-20.567zM501.717 99.076v506.566h20.567v-506.566h-20.567zM712.285 99.076h-20.619v506.566h20.619v-506.566z"  horiz-adv-x="1024" />

    


  </font>
</defs>
</svg>
